<svg fill="none" height="15" viewBox="0 0 15 15" width="15" xmlns="http://www.w3.org/2000/svg"><path clip-rule="evenodd" d="m2.8.4c0-.220914-.17909-.4-.4-.4-.22092 0-.4.179086-.4.4v.6h-.6c-.22092 0-.4.17908-.4.4 0 .22091.17908.4.4.4h.6v.6c0 .22091.17908.4.4.4.22091 0 .4-.17909.4-.4v-.6h.6c.22091 0 .4-.17909.4-.4 0-.22092-.17909-.4-.4-.4h-.6zm3 3c0-.22092-.17909-.4-.4-.4-.22092 0-.4.17908-.4.4v.6h-.6c-.22092 0-.4.17908-.4.4 0 .22091.17908.4.4.4h.6v.6c0 .22091.17908.4.4.4.22091 0 .4-.17909.4-.4v-.6h.6c.22091 0 .4-.17909.4-.4 0-.22092-.17909-.4-.4-.4h-.6zm-4 3c0-.22092-.17909-.4-.4-.4-.22092 0-.4.17908-.4.4v.6h-.6c-.220914 0-.4.17908-.4.4 0 .22091.179086.4.4.4h.6v.6c0 .22091.17908.39999.4.39999.22091 0 .4-.17908.4-.39999v-.6h.6c.22091 0 .4-.17909.4-.4 0-.22092-.17909-.4-.4-.4h-.6zm6.64408-5.518136-.29788-.040254c-.21343-.02391-.33926.22391-.21682.40035.14077.20285.27045.41398.38818.63251.50124.9304.78568 1.99487.78568 3.12577 0 3.27179-2.38075 5.98756-5.50435 6.50946-.24151.0403-.48899.0675-.73879.0809-.21445.0114-.33279.2629-.18287.4166.0683.0701.13814.1386.20946.2056l.07216.0667.26.225.18801.1487.12112.0901.18695.1309.17588.1148c.12096.0761.24457.1485.37078.2169l.26339.1353.26057.1195.30284.1221.24332.0858c.13395.0442.2698.0843.40688.1199.10405.027.2091.0516.31548.0737.12588.0261.25308.0487.38139.0676l.31697.0387.26693.0207c.12703.0073.25502.011.38388.011 3.64506 0 6.59996-2.9549 6.59996-6.59995 0-.24979-.0139-.49634-.0409-.73892l-.0368-.27724c-.0345-.22324-.0802-.44278-.1364-.65765-.0678-.25933-.1509-.51244-.2482-.75761l-.113-.26749-.0772-.1659-.0741-.14876c-.1588-.30893-.3413-.60371-.5454-.88243l-.153-.20071-.1989-.2392-.1636-.18071-.1196-.1241-.1606-.15705-.2221-.20062-.3209-.25993-.2442-.17693-.2921-.19052-.3216-.18552-.3273-.16516-.1135-.05202-.2389-.10116-.27697-.1037-.25225-.0823-.32491-.089706-.26476-.06003zm1.85912 4.318386c0-1.02435-.203-2.00194-.57074-2.89419 1.92984.88391 3.27074 2.83258 3.27074 5.09419 0 3.09275-2.5072 5.59995-5.59996 5.59995-.86676 0-1.68725-.1966-2.41967-.548 1.45835-.4581 2.72726-1.344 3.65967-2.51058.13641.18678.35706.30808.60606.30808.41421 0 .75002-.33578.75002-.74997 0-.35715-.24965-.65598-.58395-.73155.06206-.11651.12118-.23482.17725-.35484.19098.11831.41618.18661.65738.18661.6903 0 1.25-.55965 1.25-1.25 0-.69017-.5594-1.24969-1.2495-1.25.0348-.29506.0527-.59529.0527-.8997z" fill="currentcolor" fill-rule="evenodd"/></svg>