<svg width="15" height="15" viewBox="0 0 15 15" fill="none" xmlns="http://www.w3.org/2000/svg">
<path fill-rule="evenodd" clip-rule="evenodd" d="M2.9001 0.499976C2.9001 0.279062 2.72101 0.0999756 2.5001 0.0999756C2.27918 0.0999756 2.1001 0.279062 2.1001 0.499976V1.09998H1.5001C1.27918 1.09998 1.1001 1.27906 1.1001 1.49998C1.1001 1.72089 1.27918 1.89998 1.5001 1.89998H2.1001V2.49998C2.1001 2.72089 2.27918 2.89998 2.5001 2.89998C2.72101 2.89998 2.9001 2.72089 2.9001 2.49998V1.89998H3.5001C3.72101 1.89998 3.9001 1.72089 3.9001 1.49998C3.9001 1.27906 3.72101 1.09998 3.5001 1.09998H2.9001V0.499976ZM5.9001 3.49998C5.9001 3.27906 5.72101 3.09998 5.5001 3.09998C5.27918 3.09998 5.1001 3.27906 5.1001 3.49998V4.09998H4.5001C4.27918 4.09998 4.1001 4.27906 4.1001 4.49998C4.1001 4.72089 4.27918 4.89998 4.5001 4.89998H5.1001V5.49998C5.1001 5.72089 5.27918 5.89998 5.5001 5.89998C5.72101 5.89998 5.9001 5.72089 5.9001 5.49998V4.89998H6.5001C6.72101 4.89998 6.9001 4.72089 6.9001 4.49998C6.9001 4.27906 6.72101 4.09998 6.5001 4.09998H5.9001V3.49998ZM1.9001 6.49998C1.9001 6.27906 1.72101 6.09998 1.5001 6.09998C1.27918 6.09998 1.1001 6.27906 1.1001 6.49998V7.09998H0.500098C0.279184 7.09998 0.100098 7.27906 0.100098 7.49998C0.100098 7.72089 0.279184 7.89998 0.500098 7.89998H1.1001V8.49998C1.1001 8.72089 1.27918 8.89997 1.5001 8.89997C1.72101 8.89997 1.9001 8.72089 1.9001 8.49998V7.89998H2.5001C2.72101 7.89998 2.9001 7.72089 2.9001 7.49998C2.9001 7.27906 2.72101 7.09998 2.5001 7.09998H1.9001V6.49998ZM8.54418 0.98184L8.2463 0.941586C8.03287 0.917676 7.90704 1.1655 8.02948 1.34194C8.17025 1.54479 8.29993 1.75592 8.41766 1.97445C8.9189 2.90485 9.20334 3.96932 9.20334 5.10022C9.20334 8.37201 6.82259 11.0878 3.69899 11.6097C3.45748 11.65 3.21 11.6772 2.9602 11.6906C2.74575 11.702 2.62741 11.9535 2.77733 12.1072C2.84563 12.1773 2.91547 12.2458 2.98679 12.3128L3.05895 12.3795L3.31895 12.6045L3.50696 12.7532L3.62808 12.8433L3.81503 12.9742L3.99091 13.089C4.11187 13.1651 4.23548 13.2375 4.36169 13.3059L4.62508 13.4412L4.88565 13.5607L5.18849 13.6828L5.43181 13.7686C5.56576 13.8128 5.70161 13.8529 5.83869 13.8885C5.94274 13.9155 6.04779 13.9401 6.15417 13.9622C6.28005 13.9883 6.40725 14.0109 6.53556 14.0298L6.85253 14.0685L7.11946 14.0892C7.24649 14.0965 7.37448 14.1002 7.50334 14.1002C11.1484 14.1002 14.1033 11.1453 14.1033 7.50023C14.1033 7.25044 14.0894 7.00389 14.0624 6.76131L14.0256 6.48407C13.9911 6.26083 13.9454 6.04129 13.8892 5.82642C13.8214 5.56709 13.7383 5.31398 13.641 5.06881L13.528 4.80132L13.4508 4.63542L13.3767 4.48666C13.2179 4.17773 13.0354 3.88295 12.8313 3.60423L12.6783 3.40352L12.4794 3.16432L12.3158 2.98361L12.1962 2.85951L12.0356 2.70246L11.8135 2.50184L11.4926 2.24191L11.2484 2.06498L10.9563 1.87446L10.6347 1.68894L10.3074 1.52378L10.1939 1.47176L9.955 1.3706L9.67803 1.2669L9.42578 1.1846L9.10087 1.09489L8.83611 1.03486L8.54418 0.98184ZM10.4033 5.30023C10.4033 4.27588 10.2003 3.29829 9.83256 2.40604C11.7624 3.28995 13.1033 5.23862 13.1033 7.50023C13.1033 10.593 10.5961 13.1002 7.50334 13.1002C6.63658 13.1002 5.81609 12.9036 5.08367 12.5522C6.54202 12.0941 7.81093 11.2082 8.74334 10.0416C8.87975 10.2284 9.1004 10.3497 9.3494 10.3497C9.76361 10.3497 10.0994 10.0139 10.0994 9.59971C10.0994 9.24256 9.84977 8.94373 9.51547 8.86816C9.57753 8.75165 9.63665 8.63334 9.69272 8.51332C9.8837 8.63163 10.1089 8.69993 10.3501 8.69993C11.0404 8.69993 11.6001 8.14028 11.6001 7.44993C11.6001 6.75976 11.0407 6.20024 10.3506 6.19993C10.3854 5.90487 10.4033 5.60464 10.4033 5.30023Z" fill="currentcolor"/>
</svg>
